<?xml version="1.0" encoding="UTF-8" standalone="no"?>
<svg
   xmlns:dc="http://purl.org/dc/elements/1.1/"
   xmlns:cc="http://creativecommons.org/ns#"
   xmlns:rdf="http://www.w3.org/1999/02/22-rdf-syntax-ns#"
   xmlns:svg="http://www.w3.org/2000/svg"
   xmlns="http://www.w3.org/2000/svg"
   xmlns:sodipodi="http://sodipodi.sourceforge.net/DTD/sodipodi-0.dtd"
   xmlns:inkscape="http://www.inkscape.org/namespaces/inkscape"
   viewBox="0 0 16 16"
   version="1.1"
   id="svg14"
   sodipodi:docname="file_image.svg"
   inkscape:version="0.92.2 2405546, 2018-03-11">
  <metadata
     id="metadata20">
    <rdf:RDF>
      <cc:Work
         rdf:about="">
        <dc:format>image/svg+xml</dc:format>
        <dc:type
           rdf:resource="http://purl.org/dc/dcmitype/StillImage" />
      </cc:Work>
    </rdf:RDF>
  </metadata>
  <defs
     id="defs18" />
  <sodipodi:namedview
     pagecolor="#ffffff"
     bordercolor="#666666"
     borderopacity="1"
     objecttolerance="10"
     gridtolerance="10"
     guidetolerance="10"
     inkscape:pageopacity="0"
     inkscape:pageshadow="2"
     inkscape:window-width="1366"
     inkscape:window-height="714"
     id="namedview16"
     showgrid="false"
     inkscape:zoom="14.75"
     inkscape:cx="-11.966102"
     inkscape:cy="2.5762712"
     inkscape:window-x="0"
     inkscape:window-y="31"
     inkscape:window-maximized="1"
     inkscape:current-layer="svg14" />
  <path
     d="m 2.668 1 c -0.344 0 -0.668 0.339 -0.668 0.697 l 0 12.605 c 0 0.338 0.344 0.697 0.668 0.697 l 10.664 0 c 0.324 0 0.668 -0.359 0.668 -0.697 l 0 -9.303 -4 -4 m -7 1 7 0 0 2.383 c 0 0.299 0.337 0.733 0.613 0.617 l 2.387 0 0 9 -10 0"
     style="fill:#bebebe;fill-opacity:1"
     id="path2" />
  <path
     inkscape:connector-curvature="0"
     d="m 4.1913171,6.3653382 c -0.2996685,0 -0.5409178,0.1939177 -0.5409178,0.4347933 v 6.0871075 c 0,0.240877 0.2412493,0.434795 0.5409178,0.434795 h 7.5728489 c 0.299669,0 0.540919,-0.193918 0.540919,-0.434795 V 6.8001315 c 0,-0.2408756 -0.24125,-0.4347933 -0.540919,-0.4347933 z M 4.7322349,7.234925 H 11.22325 v 3.478348 L 9.3300357,8.9740992 7.9777421,10.278479 6.3549893,8.5393058 4.7322349,9.8436857 Z"
     style="opacity:1;fill:#808080;fill-opacity:1;stroke:none;stroke-width:0.48496142"
     id="path2-3" />
  <path
     style="fill:#ffffff;fill-opacity:1;stroke-width:0.06779661"
     d="M 3.0440678,8 V 2.0338983 H 6.5016949 9.959322 v 1.1886182 c 0,1.265239 0.059573,1.5771003 0.328786,1.721179 0.08395,0.044928 0.62358,0.073254 1.395571,0.073254 h 1.258694 V 9.4915254 13.966102 H 7.9932203 3.0440678 Z m 9.1585592,5.161981 c 0.123453,-0.152489 0.129576,-0.310285 0.129576,-3.338983 0,-3.6010934 0.03237,-3.3977754 -0.554435,-3.4828006 C 11.616606,6.3168456 9.7870793,6.3070194 7.7121532,6.3183613 4.1132627,6.3380335 3.9329921,6.3449296 3.796899,6.4681348 3.6556743,6.5959855 3.6542373,6.6299106 3.6542373,9.8360956 v 3.2388084 l 0.1806044,0.142064 c 0.1793668,0.14109 0.2082125,0.141936 4.2094068,0.123565 l 4.0288025,-0.0185 z"
     id="path816"
     inkscape:connector-curvature="0" />
  <path
     style="fill:#ffffff;fill-opacity:1;stroke-width:0.06779661"
     d="M 10.227229,9.7596807 9.3437647,8.9430902 8.6591382,9.5848119 7.9745116,10.226534 7.4534625,9.6725889 C 7.1668855,9.3679192 6.8166975,8.988983 6.6752669,8.8305085 6.5338363,8.6720339 6.3918388,8.5423729 6.3597169,8.5423729 c -0.032122,0 -0.3970122,0.2745762 -0.8108673,0.6101695 -0.4138551,0.3355932 -0.7653794,0.6101695 -0.7811652,0.6101695 -0.015786,0 -0.028701,-0.5644068 -0.028701,-1.2542373 V 7.2542373 h 3.2203389 3.2203387 v 1.6610169 c 0,0.9135593 -0.01552,1.6610168 -0.03448,1.6610168 -0.01897,0 -0.432043,-0.367466 -0.917948,-0.8165903 z"
     id="path818"
     inkscape:connector-curvature="0" />
</svg>
