<?xml version="1.0" encoding="UTF-8" standalone="no"?>
<svg
   xmlns:dc="http://purl.org/dc/elements/1.1/"
   xmlns:cc="http://creativecommons.org/ns#"
   xmlns:rdf="http://www.w3.org/1999/02/22-rdf-syntax-ns#"
   xmlns:svg="http://www.w3.org/2000/svg"
   xmlns="http://www.w3.org/2000/svg"
   xmlns:sodipodi="http://sodipodi.sourceforge.net/DTD/sodipodi-0.dtd"
   xmlns:inkscape="http://www.inkscape.org/namespaces/inkscape"
   viewBox="0 0 16 16"
   version="1.1"
   id="svg14"
   sodipodi:docname="file_active.svg"
   inkscape:version="0.92.2 2405546, 2018-03-11">
  <metadata
     id="metadata20">
    <rdf:RDF>
      <cc:Work
         rdf:about="">
        <dc:format>image/svg+xml</dc:format>
        <dc:type
           rdf:resource="http://purl.org/dc/dcmitype/StillImage" />
        <dc:title />
      </cc:Work>
    </rdf:RDF>
  </metadata>
  <defs
     id="defs18" />
  <sodipodi:namedview
     pagecolor="#ffffff"
     bordercolor="#666666"
     borderopacity="1"
     objecttolerance="10"
     gridtolerance="10"
     guidetolerance="10"
     inkscape:pageopacity="0"
     inkscape:pageshadow="2"
     inkscape:window-width="1366"
     inkscape:window-height="714"
     id="namedview16"
     showgrid="false"
     inkscape:zoom="14.75"
     inkscape:cx="-11.288136"
     inkscape:cy="12.745763"
     inkscape:window-x="0"
     inkscape:window-y="31"
     inkscape:window-maximized="1"
     inkscape:current-layer="svg14" />
  <path
     d="m 2.668 1 c -0.344 0 -0.668 0.339 -0.668 0.697 l 0 12.605 c 0 0.338 0.344 0.697 0.668 0.697 l 10.664 0 c 0.324 0 0.668 -0.359 0.668 -0.697 l 0 -9.303 -4 -4 m -7 1 7 0 0 2.383 c 0 0.299 0.337 0.733 0.613 0.617 l 2.387 0 0 9 -10 0"
     style="fill:#bebebe;fill-opacity:1"
     id="path2" />
  <g
     transform="translate(15.491527,1.084523)"
     style="fill:#bebebe;fill-opacity:1"
     id="g12">
    <path
       d="m -11.492 6.915 0 1 8 0 0 -1 z"
       id="path4" />
    <path
       d="m -11.492 8.915 0 1 8 0 0 -1 z"
       id="path6" />
    <path
       d="m -11.492 10.915 0 1 8 0 0 -1 z"
       id="path8" />
    <path
       d="m -11.492 4.915 0 1 8 0 0 -1 z"
       id="path10" />
  </g>
  <path
     d="M 10.558791,6.6095601 9.1173708,10.000141 5.1168976,10.195158 8.2269387,12.487844 7.1957022,16 8.3065245,15.346446 10.558791,14.02391 13.921195,15.999381 12.889959,12.487225 16,10.194546 11.999527,9.999523 Z"
     style="color:#000000;display:inline;visibility:visible;opacity:1;fill:#ff9900;fill-opacity:1;stroke:none;stroke-width:0.64792198;enable-background:new"
     id="path2-3"
     inkscape:connector-curvature="0" />
  <path
     style="fill:#ffffff;fill-opacity:1;stroke-width:0.06779661"
     d="M 3.0440678,7.9999997 V 2.033898 H 6.5016949 9.959322 v 1.1886183 c 0,1.2652389 0.059573,1.5771002 0.328786,1.7211789 0.08395,0.044928 0.62358,0.073254 1.395571,0.073254 h 1.258694 v 2.5173452 2.5173446 l -0.254237,-0.04202 c -0.139831,-0.023113 -0.348813,-0.042359 -0.464406,-0.042769 -0.193213,-6.847e-4 -0.224678,-0.03493 -0.390026,-0.4244752 -0.219979,-0.5182556 -0.220116,-0.5254237 -0.01,-0.5254237 0.165628,0 0.169491,-0.011515 0.169491,-0.5052396 V 8.0064699 L 11.580847,7.9862856 11.168473,7.9661014 10.973539,7.5084743 10.778605,7.0508472 h 0.607308 0.607307 V 6.5084743 5.9661014 h -3.9999997 -4 v 0.5423729 0.5423729 h 3.1525424 c 1.7338983,0 3.1526303,0.022881 3.1527373,0.050847 1.35e-4,0.027966 -0.08074,0.2415255 -0.179662,0.4745763 L 9.9389803,7.9999997 H 6.9661004 3.9932203 v 0.5084746 0.5084746 h 2.7530162 c 2.1751823,0 2.7459453,0.017787 2.7193278,0.084746 -0.018529,0.04661 -0.1056909,0.2601268 -0.1936941,0.4744821 l -0.1600058,0.3897356 -2.559322,9.49e-5 -2.5593221,9.42e-5 v 0.5423723 0.542373 h 1.1173788 1.1173787 l 0.6259322,0.457627 0.6259322,0.457627 -1.7433109,0.01809 -1.743311,0.01809 v 0.50733 0.50733 h 2.0261034 2.0261035 l -0.1384401,0.474576 -0.13844,0.474576 H 5.4063075 3.0440678 Z"
     id="path818"
     inkscape:connector-curvature="0" />
</svg>
