<?xml version="1.0" encoding="UTF-8" standalone="no"?>
<svg
   xmlns:dc="http://purl.org/dc/elements/1.1/"
   xmlns:cc="http://creativecommons.org/ns#"
   xmlns:rdf="http://www.w3.org/1999/02/22-rdf-syntax-ns#"
   xmlns:svg="http://www.w3.org/2000/svg"
   xmlns="http://www.w3.org/2000/svg"
   xmlns:sodipodi="http://sodipodi.sourceforge.net/DTD/sodipodi-0.dtd"
   xmlns:inkscape="http://www.inkscape.org/namespaces/inkscape"
   viewBox="0 0 16 16"
   version="1.1"
   id="svg6"
   sodipodi:docname="unload_all_folders.svg"
   inkscape:version="0.92.2 2405546, 2018-03-11">
  <metadata
     id="metadata12">
    <rdf:RDF>
      <cc:Work
         rdf:about="">
        <dc:format>image/svg+xml</dc:format>
        <dc:type
           rdf:resource="http://purl.org/dc/dcmitype/StillImage" />
      </cc:Work>
    </rdf:RDF>
  </metadata>
  <defs
     id="defs10" />
  <sodipodi:namedview
     pagecolor="#ffffff"
     bordercolor="#666666"
     borderopacity="1"
     objecttolerance="10"
     gridtolerance="10"
     guidetolerance="10"
     inkscape:pageopacity="0"
     inkscape:pageshadow="2"
     inkscape:window-width="1366"
     inkscape:window-height="714"
     id="namedview8"
     showgrid="false"
     inkscape:zoom="14.75"
     inkscape:cx="-3.4237288"
     inkscape:cy="8"
     inkscape:window-x="0"
     inkscape:window-y="31"
     inkscape:window-maximized="1"
     inkscape:current-layer="svg6" />
  <path
     d="M 0,2 0,15 16,15 16,8 15,3 10,3 9,1 1,1 C 0.5,1 0,1.5 0,2 Z"
     style="fill:#bfbfbf;opacity:0.5;fill-opacity:1;stroke:none"
     id="path2" />
  <path
     d="M 16,4 16,15 0,15 0,5 7,5 8,3 15,3 c 0.5,0 1,0.5 1,1 z"
     style="fill:#bfbfbf;fill-opacity:1;stroke:none"
     id="path4" />
  <path
     inkscape:connector-curvature="0"
     style="fill:#dc322f;fill-rule:evenodd;stroke-width:0.78169513"
     d="m 5.2445371,6.8674781 c -0.1382305,-9.994e-4 -0.2982317,0.018447 -0.4791838,0.047321 -0.035314,0.236759 -0.021822,0.4360607 0,0.6151764 0.00166,0.057272 -0.00733,0.1112105 0,0.1656245 0.023562,0.1749019 0.092328,0.3458557 0.2269818,0.4968733 0.044885,0.050339 0.088162,0.09364 0.1513212,0.1419638 C 5.4188659,8.61243 5.7134461,8.8724693 6.001143,9.1388986 L 6.8586297,9.9433604 C 6.5696535,10.208573 6.2888398,10.481393 6.001143,10.747822 c -0.2856433,0.268254 -0.5779685,0.530309 -0.8574867,0.804462 -0.059657,0.0403 -0.1076758,0.09649 -0.1513212,0.141963 -0.051479,0.05364 -0.093341,0.106017 -0.126101,0.165625 -0.060535,0.110144 -0.085546,0.23094 -0.1008808,0.354909 -0.00961,0.07766 -0.025602,0.156232 -0.02522,0.236607 -0.00218,0.03733 -6.747e-4,0.07818 0,0.118303 0.00529,0.137256 0.022875,0.268258 0.02522,0.402231 0.1449159,0.01903 0.280935,0.02187 0.4035232,0.02366 0.02291,3.33e-4 0.053415,2.93e-4 0.075661,0 0.056872,-7.49e-4 0.098367,-0.01872 0.1513211,-0.02366 0.00862,-8.33e-4 0.016697,9.08e-4 0.02522,0 0.2591023,-0.0084 0.5038733,-0.04208 0.7061656,-0.212946 0.053657,-0.04211 0.099812,-0.08271 0.1513212,-0.141964 l 1.7149732,-1.608923 1.7149736,1.608923 c 0.042951,0.05597 0.102846,0.101018 0.1513212,0.141964 0.057179,0.0483 0.1130053,0.08757 0.1765416,0.118303 0.112292,0.05549 0.228796,0.07991 0.353083,0.09464 0.139672,0.01738 0.282348,0.02922 0.428743,0.02366 0.12259,-0.0018 0.258604,-0.0046 0.403523,-0.02366 0.04516,-0.249084 0.0482,-0.443717 0.02522,-0.615177 -0.0024,-0.06552 -0.01478,-0.126048 -0.02522,-0.189285 -0.03762,-0.227778 -0.136602,-0.451924 -0.378303,-0.615173 -0.27521,-0.277994 -0.56979,-0.538032 -0.8574863,-0.804462 L 9.1284475,9.9433604 10.843421,8.3344374 c 0.06316,-0.048324 0.106437,-0.091625 0.151321,-0.1419638 0.05009,-0.054292 0.09409,-0.1086127 0.126101,-0.1656245 0.05524,-0.098391 0.08421,-0.1994546 0.100881,-0.3075882 0.0019,-0.00737 -0.0019,-0.016225 0,-0.023661 0.0546,-0.2196012 0.04656,-0.4686454 0,-0.7808009 -0.265483,-0.042363 -0.472972,-0.045211 -0.655725,-0.023661 -0.06525,0.00881 -0.141829,0.00672 -0.201761,0.023661 -0.02499,0.00661 -0.0513,0.015675 -0.07566,0.023661 C 10.07402,6.9815632 9.8650429,7.0657305 9.7085122,7.2697089 9.4121957,7.5279005 9.1350161,7.8042642 8.8510253,8.0741704 8.5670346,8.3440767 8.2762327,8.6075255 7.9935386,8.878632 7.7186352,8.6079019 7.4429072,8.3383002 7.1612721,8.0741704 c -0.00417,-0.00397 -0.021044,0.00397 -0.02522,0 C 6.8520612,7.8042642 6.5748817,7.5279005 6.2785652,7.2697089 6.2356158,7.2137403 6.1757192,7.1686916 6.127244,7.1277451 6.0936361,7.0993568 6.0622703,7.0788262 6.0263632,7.0567632 c -0.019103,-0.011738 -0.03075,-0.037214 -0.05044,-0.047321 -0.00742,-0.00366 -0.017758,0.00345 -0.02522,0 -0.1027898,-0.049722 -0.2133445,-0.078513 -0.3278626,-0.094642 -0.015536,-0.00184 -0.034693,0.0014 -0.05044,0 C 5.4715862,6.8919209 5.3646587,6.8683473 5.2445371,6.8674781 Z"
     id="path2-3" />
</svg>
