<?xml version="1.0" encoding="UTF-8" standalone="no"?>
<!-- Created with Inkscape (http://www.inkscape.org/) -->

<svg
   xmlns:dc="http://purl.org/dc/elements/1.1/"
   xmlns:cc="http://creativecommons.org/ns#"
   xmlns:rdf="http://www.w3.org/1999/02/22-rdf-syntax-ns#"
   xmlns:svg="http://www.w3.org/2000/svg"
   xmlns="http://www.w3.org/2000/svg"
   xmlns:xlink="http://www.w3.org/1999/xlink"
   xmlns:sodipodi="http://sodipodi.sourceforge.net/DTD/sodipodi-0.dtd"
   xmlns:inkscape="http://www.inkscape.org/namespaces/inkscape"
   id="svg8"
   version="1.1"
   viewBox="0 0 264.58333 264.58334"
   height="1000"
   width="1000"
   inkscape:version="0.92.1 r15371"
   sodipodi:docname="icon_export.svg">
  <defs
     id="defs2">
    <linearGradient
       inkscape:collect="always"
       id="linearGradient4558">
      <stop
         style="stop-color:#ffb5a6;stop-opacity:1"
         offset="0"
         id="stop4554" />
      <stop
         style="stop-color:#ffffff;stop-opacity:1"
         offset="1"
         id="stop4556" />
    </linearGradient>
    <linearGradient
       inkscape:collect="always"
       id="linearGradient5030">
      <stop
         style="stop-color:#141414;stop-opacity:1"
         offset="0"
         id="stop5026" />
      <stop
         style="stop-color:#c8c8c8;stop-opacity:1"
         offset="1"
         id="stop5028" />
    </linearGradient>
    <linearGradient
       id="linearGradient5004"
       inkscape:collect="always">
      <stop
         id="stop5000"
         offset="0"
         style="stop-color:#222222;stop-opacity:1" />
      <stop
         id="stop5002"
         offset="1"
         style="stop-color:#b0b0b0;stop-opacity:1" />
    </linearGradient>
    <linearGradient
       inkscape:collect="always"
       id="linearGradient4994">
      <stop
         style="stop-color:#dddddd;stop-opacity:1"
         offset="0"
         id="stop4990" />
      <stop
         style="stop-color:#222222;stop-opacity:1"
         offset="1"
         id="stop4992" />
    </linearGradient>
    <linearGradient
       inkscape:collect="always"
       id="linearGradient4964">
      <stop
         style="stop-color:#888888;stop-opacity:1"
         offset="0"
         id="stop4960" />
      <stop
         style="stop-color:#222222;stop-opacity:1"
         offset="1"
         id="stop4962" />
    </linearGradient>
    <linearGradient
       inkscape:collect="always"
       xlink:href="#linearGradient4964"
       id="linearGradient4966"
       x1="110.14753"
       y1="64.935326"
       x2="296.63013"
       y2="251.41846"
       gradientUnits="userSpaceOnUse" />
    <filter
       inkscape:collect="always"
       style="color-interpolation-filters:sRGB"
       id="filter4986"
       x="-0.020049264"
       width="1.0400985"
       y="-0.029889835"
       height="1.0597797">
      <feGaussianBlur
         inkscape:collect="always"
         stdDeviation="0.35679285"
         id="feGaussianBlur4988" />
    </filter>
    <linearGradient
       inkscape:collect="always"
       xlink:href="#linearGradient4994"
       id="linearGradient4996"
       x1="18.54565"
       y1="100.38689"
       x2="154.25913"
       y2="100.38689"
       gradientUnits="userSpaceOnUse" />
    <linearGradient
       inkscape:collect="always"
       xlink:href="#linearGradient5004"
       id="linearGradient4998"
       gradientUnits="userSpaceOnUse"
       x1="29.520794"
       y1="160.70209"
       x2="147.55286"
       y2="37.602619" />
    <linearGradient
       inkscape:collect="always"
       xlink:href="#linearGradient5030"
       id="linearGradient5032"
       x1="5.291667"
       y1="259.29169"
       x2="177.86777"
       y2="224.2606"
       gradientUnits="userSpaceOnUse" />
    <linearGradient
       inkscape:collect="always"
       xlink:href="#linearGradient4558"
       id="linearGradient4560"
       x1="264.58334"
       y1="-4.2529296e-006"
       x2="-4.2529296e-006"
       y2="264.58334"
       gradientUnits="userSpaceOnUse" />
    <filter
       inkscape:collect="always"
       style="color-interpolation-filters:sRGB"
       id="filter4614"
       x="-0.024000035"
       width="1.0480001"
       y="-0.023999965"
       height="1.0479999">
      <feGaussianBlur
         inkscape:collect="always"
         stdDeviation="1.8648287"
         id="feGaussianBlur4616" />
    </filter>
    <filter
       inkscape:collect="always"
       style="color-interpolation-filters:sRGB"
       id="filter4626"
       x="-0.024000041"
       width="1.0480001"
       y="-0.023999959"
       height="1.0479999">
      <feGaussianBlur
         inkscape:collect="always"
         stdDeviation="1.9962512"
         id="feGaussianBlur4628" />
    </filter>
  </defs>
  <sodipodi:namedview
     inkscape:window-maximized="1"
     inkscape:window-y="-8"
     inkscape:window-x="-8"
     inkscape:window-height="1027"
     inkscape:window-width="1680"
     units="px"
     showgrid="false"
     inkscape:current-layer="g4934"
     inkscape:document-units="px"
     inkscape:cy="479.18277"
     inkscape:cx="509.89043"
     inkscape:zoom="0.7"
     inkscape:pageshadow="2"
     inkscape:pageopacity="0"
     borderopacity="1.0"
     bordercolor="#666666"
     pagecolor="#000000"
     id="base"
     inkscape:snap-bbox="true"
     inkscape:bbox-paths="true"
     inkscape:bbox-nodes="true"
     inkscape:snap-bbox-edge-midpoints="true"
     showguides="true"
     inkscape:object-paths="true"
     inkscape:snap-intersection-paths="true"
     inkscape:snap-smooth-nodes="true"
     inkscape:snap-global="true" />
  <metadata
     id="metadata5">
    <rdf:RDF>
      <cc:Work
         rdf:about="">
        <dc:format>image/svg+xml</dc:format>
        <dc:type
           rdf:resource="http://purl.org/dc/dcmitype/StillImage" />
        <dc:title></dc:title>
        <dc:creator>
          <cc:Agent>
            <dc:title>Iceflower S, iceflower@gmx.de</dc:title>
          </cc:Agent>
        </dc:creator>
        <dc:rights>
          <cc:Agent>
            <dc:title>Iceflower S, iceflower@gmx.de</dc:title>
          </cc:Agent>
        </dc:rights>
        <dc:publisher>
          <cc:Agent>
            <dc:title>Iceflower S, iceflower@gmx.de</dc:title>
          </cc:Agent>
        </dc:publisher>
      </cc:Work>
    </rdf:RDF>
  </metadata>
  <path
     style="opacity:1;fill:url(#linearGradient4560);fill-opacity:1;stroke:none;stroke-width:9.77274323;stroke-linecap:round;stroke-linejoin:round;stroke-miterlimit:4;stroke-dasharray:none;stroke-dashoffset:188.97637939;stroke-opacity:1;paint-order:normal"
     d="M 37.041664,-4.2529296e-6 H 227.54167 C 248.06276,-4.2529296e-6 264.58334,16.52058 264.58334,37.041664 V 227.54167 c 0,20.52109 -16.52058,37.04167 -37.04167,37.04167 H 37.041664 C 16.52058,264.58334 -4.2529296e-6,248.06276 -4.2529296e-6,227.54167 V 37.041664 C -4.2529296e-6,16.52058 16.52058,-4.2529296e-6 37.041664,-4.2529296e-6 Z"
     id="rect4508" />
  <g
     inkscape:label="Ebene 1"
     inkscape:groupmode="layer"
     id="layer1"
     transform="translate(0,-32.416615)" />
  <g
     id="g4804"
     transform="matrix(1.1402944,0,0,1.1402944,-4.725689,-23.185365)"
     style="fill-opacity:1;fill:url(#linearGradient4996)">
    <g
       id="g4808"
       transform="matrix(1.1493238,0,0,1.1493238,-15.3833,-13.571263)"
       style="fill-opacity:1;fill:url(#linearGradient4996)">
      <path
         inkscape:connector-curvature="0"
         id="path4499-59"
         d="M 147.55286,37.60262 60.669803,54.635173 v 74.826437 a 19.547725,17.32278 0 0 0 -11.60136,-3.40548 19.547725,17.32278 0 0 0 -19.54765,17.32298 19.547725,17.32278 0 0 0 19.54765,17.32297 19.547725,17.32278 0 0 0 19.54764,-17.32297 h 5.2e-4 V 83.940359 l 71.039067,-13.9268 v 59.448571 a 19.547725,17.32278 0 0 0 -11.60188,-3.406 19.547725,17.32278 0 0 0 -19.54765,17.32298 19.547725,17.32278 0 0 0 19.54765,17.32297 19.547725,17.32278 0 0 0 19.54816,-17.32297 z m -7.89719,11.808583 V 59.434367 L 68.616603,73.36168 V 63.338002 Z"
         style="opacity:1;fill:url(#linearGradient4998);fill-opacity:1;stroke:none;stroke-width:18.72455215;stroke-linecap:round;stroke-linejoin:round;stroke-miterlimit:4;stroke-dasharray:none;stroke-dashoffset:188.97637939;stroke-opacity:1;paint-order:normal" />
    </g>
  </g>
  <g
     id="g4934"
     transform="translate(-41.270301,-5.073673)">
    <path
       style="color:#000000;font-style:normal;font-variant:normal;font-weight:normal;font-stretch:normal;font-size:medium;line-height:normal;font-family:sans-serif;font-variant-ligatures:normal;font-variant-position:normal;font-variant-caps:normal;font-variant-numeric:normal;font-variant-alternates:normal;font-feature-settings:normal;text-indent:0;text-align:start;text-decoration:none;text-decoration-line:none;text-decoration-style:solid;text-decoration-color:#000000;letter-spacing:normal;word-spacing:normal;text-transform:none;writing-mode:lr-tb;direction:ltr;text-orientation:mixed;dominant-baseline:auto;baseline-shift:baseline;text-anchor:start;white-space:normal;shape-padding:0;clip-rule:nonzero;display:inline;overflow:visible;visibility:visible;opacity:1;isolation:auto;mix-blend-mode:normal;color-interpolation:sRGB;color-interpolation-filters:linearRGB;solid-color:#000000;solid-opacity:1;vector-effect:none;fill:#ffffff;fill-opacity:0.74509804;fill-rule:nonzero;stroke:none;stroke-width:13.22916698;stroke-linecap:round;stroke-linejoin:round;stroke-miterlimit:4;stroke-dasharray:none;stroke-dashoffset:188.97637939;stroke-opacity:1;paint-order:normal;color-rendering:auto;image-rendering:auto;shape-rendering:auto;text-rendering:auto;enable-background:accumulate;filter:url(#filter4626)"
       d="m 172.89258,58.353516 c -17.78576,2.92e-4 -35.57207,6.751752 -49.07422,20.253906 -27.00428,27.004298 -27.0043,71.140218 0,98.144528 23.25092,23.25093 59.16089,26.50008 85.96484,9.68555 l 67.1211,67.12109 c 5.89385,5.89386 15.67646,5.89383 21.57031,0 l 0.29492,-0.29687 c 5.89386,-5.89384 5.89386,-15.67451 0,-21.56836 L 231.64648,164.57031 C 248.4619,137.76607 245.21617,101.85676 221.96484,78.605469 208.46262,65.103248 190.67833,58.353224 172.89258,58.353516 Z m 0,13.164062 c 14.37885,-2.56e-4 28.75722,5.479877 39.71875,16.441406 0.43732,0.437321 0.74228,0.950423 1.16211,1.398438 -0.41485,-0.442309 -0.78296,-0.911864 -1.21485,-1.34375 -21.76436,-21.764278 -57.0185,-21.869541 -78.93945,-0.357422 a 6.615245,6.615245 0 0 0 -0.39453,0.355469 c -3.5e-4,3.45e-4 3.4e-4,0.0016 0,0.002 -21.89029,21.891398 -21.89099,57.441058 0,79.332028 0.42496,0.42497 0.88721,0.78685 1.32227,1.19532 -0.44033,-0.41308 -0.94502,-0.7126 -1.375,-1.14258 -21.92321,-21.92321 -21.92319,-57.51431 0,-79.437502 10.96159,-10.961601 25.34185,-16.443104 39.7207,-16.44336 z m -0.002,13.199219 c 10.93906,7.3e-5 21.87841,4.216326 30.3125,12.650391 16.86822,16.868212 16.86825,43.756772 0,60.625002 -16.86819,16.86819 -43.75683,16.86824 -60.625,0 -16.86816,-16.86816 -16.86815,-43.75685 0,-60.625002 8.43408,-8.434083 19.37345,-12.650465 30.3125,-12.650391 z m 45.14649,9.775391 c 0.55831,0.75907 1.15469,1.489431 1.66992,2.269531 -0.51441,-0.777763 -1.11268,-1.512683 -1.66992,-2.269531 z m 5.31445,8.794922 c 0.42908,0.89022 0.86087,1.76854 1.24024,2.67578 -0.37879,-0.90382 -0.81205,-1.78887 -1.24024,-2.67578 z m 3.59961,9.57617 c 0.25408,0.93413 0.47851,1.86292 0.6836,2.80664 -0.20503,-0.94022 -0.42984,-1.87597 -0.6836,-2.80664 z m 1.79688,10.0293 c 0.0757,0.89431 0.0938,1.78132 0.12695,2.67773 -0.0334,-0.89308 -0.0512,-1.78677 -0.12695,-2.67773 z m -0.0332,10.19726 c -0.0741,0.77076 -0.22625,1.52527 -0.33203,2.29297 0.10547,-0.76525 0.25813,-1.5247 0.33203,-2.29297 z m -1.63867,8.89063 c -0.23707,0.90483 -0.4809,1.79716 -0.76367,2.69141 0.28242,-0.89169 0.52685,-1.78927 0.76367,-2.69141 z m -3.2832,9.13867 c -0.37202,0.81091 -0.71049,1.62406 -1.12305,2.41992 0.41184,-0.7931 0.75163,-1.61197 1.12305,-2.41992 z m -5.08985,8.8418 c -0.32867,0.46656 -0.54609,0.98487 -0.89062,1.44336 a 6.615245,6.615245 0 0 0 0.61133,8.65039 l 70.99219,70.99219 c 0.87298,0.87298 0.873,1.98833 0,2.86132 l -0.29688,0.29492 c -0.87297,0.87298 -1.98639,0.87299 -2.85937,0 l -70.99415,-70.99218 a 6.615245,6.615245 0 0 0 -8.65039,-0.61133 c -0.45548,0.34227 -0.97014,0.55814 -1.43359,0.88477 2.57975,-1.8214 5.06887,-3.83059 7.37695,-6.13868 2.31104,-2.31103 4.32144,-4.80141 6.14453,-7.38476 z m -78.98046,12.8789 c 0.74702,0.54952 1.4748,1.13868 2.24218,1.64649 -0.77011,-0.5089 -1.49256,-1.0956 -2.24218,-1.64649 z m 59.02148,4.62305 c -0.78541,0.40696 -1.58861,0.73994 -2.38867,1.10742 0.79749,-0.36708 1.60566,-0.70095 2.38867,-1.10742 z m -50.21289,0.69141 c 0.86925,0.41896 1.73561,0.84526 2.62109,1.21679 -0.88883,-0.37215 -1.74859,-0.79692 -2.62109,-1.21679 z m 41.32813,2.95508 c -0.8818,0.27837 -1.76223,0.51799 -2.6543,0.75195 0.88935,-0.23368 1.7751,-0.47395 2.6543,-0.75195 z m -31.77344,0.63085 c 0.92041,0.25076 1.84563,0.47465 2.77539,0.67774 -0.93331,-0.20323 -1.85147,-0.42659 -2.77539,-0.67774 z m 22.50195,1.4336 c -0.76505,0.10531 -1.51707,0.2562 -2.28516,0.33008 0.76561,-0.0737 1.52254,-0.22506 2.28516,-0.33008 z m -12.46484,0.36328 c 0.88254,0.0747 1.76772,0.0918 2.65234,0.125 -0.88802,-0.033 -1.76638,-0.0502 -2.65234,-0.125 z"
       id="path4695-6"
       inkscape:connector-curvature="0" />
    <path
       inkscape:connector-curvature="0"
       id="path4695"
       d="m 128.49533,83.28369 c -24.46373,24.46374 -24.46374,64.32809 1e-5,88.79184 22.34079,22.34079 57.52383,24.27603 82.09393,5.8129 l 70.99247,70.99247 c 3.38342,3.38342 8.83143,3.38341 12.21484,1e-5 l 0.29597,-0.29598 c 3.38343,-3.38342 3.38344,-8.83143 2e-5,-12.21485 L 223.10009,165.3776 c 18.46333,-24.57028 16.529,-59.75424 -5.81181,-82.095008 -24.46375,-24.46375 -64.3292,-24.462655 -88.79295,0.0011 z m 9.40633,9.406322 c 19.37974,-19.37975 50.59911,-19.379386 69.97884,3.52e-4 19.37974,19.379736 19.37975,50.598736 -1e-5,69.978486 -19.37973,19.37972 -50.59909,19.38009 -69.97883,3.6e-4 -19.37974,-19.37974 -19.37973,-50.59947 0,-69.979198 z"
       style="color:#000000;font-style:normal;font-variant:normal;font-weight:normal;font-stretch:normal;font-size:medium;line-height:normal;font-family:sans-serif;font-variant-ligatures:normal;font-variant-position:normal;font-variant-caps:normal;font-variant-numeric:normal;font-variant-alternates:normal;font-feature-settings:normal;text-indent:0;text-align:start;text-decoration:none;text-decoration-line:none;text-decoration-style:solid;text-decoration-color:#000000;letter-spacing:normal;word-spacing:normal;text-transform:none;writing-mode:lr-tb;direction:ltr;text-orientation:mixed;dominant-baseline:auto;baseline-shift:baseline;text-anchor:start;white-space:normal;shape-padding:0;clip-rule:nonzero;display:inline;overflow:visible;visibility:visible;opacity:1;isolation:auto;mix-blend-mode:normal;color-interpolation:sRGB;color-interpolation-filters:linearRGB;solid-color:#000000;solid-opacity:1;vector-effect:none;fill:url(#linearGradient4966);fill-opacity:1;fill-rule:nonzero;stroke:none;stroke-width:13.30374146;stroke-linecap:round;stroke-linejoin:round;stroke-miterlimit:4;stroke-dasharray:none;stroke-dashoffset:188.97637939;stroke-opacity:1;paint-order:normal;color-rendering:auto;image-rendering:auto;shape-rendering:auto;text-rendering:auto;enable-background:accumulate" />
    <path
       style="fill:#bbbbbb;fill-opacity:1;fill-rule:evenodd;stroke:none;stroke-width:0.26458332px;stroke-linecap:butt;stroke-linejoin:miter;stroke-opacity:1;filter:url(#filter4986)"
       d="m 127.03391,100.67441 c 2.10061,-20.250531 28.59641,-33.791021 42.70994,-26.778921 -18.80294,0.62865 -31.86242,10.621646 -42.70994,26.778921 z"
       id="path4976"
       inkscape:connector-curvature="0"
       sodipodi:nodetypes="ccc" />
  </g>
  <path
     style="color:#000000;font-style:normal;font-variant:normal;font-weight:normal;font-stretch:normal;font-size:medium;line-height:normal;font-family:sans-serif;font-variant-ligatures:normal;font-variant-position:normal;font-variant-caps:normal;font-variant-numeric:normal;font-variant-alternates:normal;font-feature-settings:normal;text-indent:0;text-align:start;text-decoration:none;text-decoration-line:none;text-decoration-style:solid;text-decoration-color:#000000;letter-spacing:normal;word-spacing:normal;text-transform:none;writing-mode:lr-tb;direction:ltr;text-orientation:mixed;dominant-baseline:auto;baseline-shift:baseline;text-anchor:start;white-space:normal;shape-padding:0;clip-rule:nonzero;display:inline;overflow:visible;visibility:visible;opacity:1;isolation:auto;mix-blend-mode:normal;color-interpolation:sRGB;color-interpolation-filters:linearRGB;solid-color:#000000;solid-opacity:1;vector-effect:none;fill:url(#linearGradient5032);fill-opacity:1;fill-rule:evenodd;stroke:none;stroke-width:9.67522907;stroke-linecap:round;stroke-linejoin:round;stroke-miterlimit:4;stroke-dasharray:none;stroke-dashoffset:0;stroke-opacity:1;color-rendering:auto;image-rendering:auto;shape-rendering:auto;text-rendering:auto;enable-background:accumulate"
     d="m 59.074219,189.23047 a 4.8380983,4.8380983 0 0 0 -4.66211,3.38476 l -13.136718,41.7793 -10.705079,-17.02344 a 4.8380983,4.8380983 0 0 0 -4.095703,-2.26171 H 10.197266 a 4.8380983,4.8380983 0 1 0 0,9.67578 h 13.605468 l 14.853516,23.61718 a 4.8380983,4.8380983 0 0 0 8.708984,-1.12304 l 12.078125,-38.40821 11.333985,30.03711 a 4.8380983,4.8380983 0 0 0 8.044922,1.61328 l 11.408203,-12.09375 13.250001,28.0918 a 4.8380983,4.8380983 0 0 0 8.99023,-0.61328 l 12.56446,-39.95703 10.99804,23.3164 a 4.8380983,4.8380983 0 0 0 7.89453,1.25586 l 14.84375,-15.73632 h 14.18946 a 4.8380983,4.8380983 0 1 0 0,-9.67578 h -16.27539 a 4.8380983,4.8380983 0 0 0 -3.51953,1.51757 l -11.40821,12.09375 -13.25,-28.09179 a 4.8380983,4.8380983 0 0 0 -8.99023,0.61328 l -12.56446,39.95703 -10.998042,-23.31641 a 4.8380983,4.8380983 0 0 0 -7.894531,-1.25586 L 77.097656,228.25 63.552734,192.35742 a 4.8380983,4.8380983 0 0 0 -4.478515,-3.12695 z"
     id="path4950"
     inkscape:connector-curvature="0" />
</svg>
