<?xml version="1.0" encoding="UTF-8" standalone="no"?>
<!-- Created with Inkscape (http://www.inkscape.org/) -->

<svg
   xmlns:osb="http://www.openswatchbook.org/uri/2009/osb"
   xmlns:dc="http://purl.org/dc/elements/1.1/"
   xmlns:cc="http://creativecommons.org/ns#"
   xmlns:rdf="http://www.w3.org/1999/02/22-rdf-syntax-ns#"
   xmlns:svg="http://www.w3.org/2000/svg"
   xmlns="http://www.w3.org/2000/svg"
   xmlns:sodipodi="http://sodipodi.sourceforge.net/DTD/sodipodi-0.dtd"
   xmlns:inkscape="http://www.inkscape.org/namespaces/inkscape"
   width="141.10092mm"
   height="140.09195mm"
   viewBox="0 0 141.10092 140.09195"
   version="1.1"
   id="svg8"
   inkscape:version="0.92.1 r15371"
   sodipodi:docname="e-logo.svg">
  <defs
     id="defs2">
    <linearGradient
       id="linearGradient4692"
       osb:paint="solid">
      <stop
         style="stop-color:#000000;stop-opacity:1;"
         offset="0"
         id="stop4690" />
    </linearGradient>
  </defs>
  <sodipodi:namedview
     id="base"
     pagecolor="#ffffff"
     bordercolor="#666666"
     borderopacity="1.0"
     inkscape:pageopacity="0.0"
     inkscape:pageshadow="2"
     inkscape:zoom="0.98994949"
     inkscape:cx="914.62152"
     inkscape:cy="34.346734"
     inkscape:document-units="mm"
     inkscape:current-layer="layer1"
     showgrid="false"
     inkscape:pagecheckerboard="true"
     inkscape:window-width="4320"
     inkscape:window-height="2312"
     inkscape:window-x="-14"
     inkscape:window-y="-14"
     inkscape:window-maximized="1" />
  <metadata
     id="metadata5">
    <rdf:RDF>
      <cc:Work
         rdf:about="">
        <dc:format>image/svg+xml</dc:format>
        <dc:type
           rdf:resource="http://purl.org/dc/dcmitype/StillImage" />
        <dc:title></dc:title>
      </cc:Work>
    </rdf:RDF>
  </metadata>
  <g
     inkscape:label="Layer 1"
     inkscape:groupmode="layer"
     id="layer1"
     transform="translate(232.18968,4.9589282)">
    <rect
       style="fill:#00b4d9;fill-opacity:0;stroke:#00b4d9;stroke-width:0.26458332;stroke-opacity:0"
       id="rect4597"
       width="139.9156"
       height="138.84651"
       x="0.65349197"
       y="0.34966111" />
    <rect
       style="fill:#00b4d9;fill-opacity:0;stroke:#00b4d9;stroke-width:0.26458332;stroke-opacity:0"
       id="rect4599"
       width="110.38231"
       height="86.996231"
       x="-171.60172"
       y="-38.404423" />
    <rect
       style="fill:none;fill-opacity:0.93247585;stroke:#00b4d9;stroke-width:2.22933507;stroke-miterlimit:4;stroke-dasharray:none;stroke-opacity:0.9648562"
       id="rect4688"
       width="138.87158"
       height="137.86261"
       x="-231.07501"
       y="-3.8442607"
       ry="25.7397" />
    <path
       style="fill:#00b4df;fill-opacity:0.97763582;stroke-width:0.1908273"
       d="m -176.10279,110.43928 c -3.62994,-0.13116 -3.99666,-0.17905 -5.14137,-0.67127 -2.42891,-1.04442 -4.13567,-2.65372 -5.01194,-4.72572 -0.47053,-1.11259 -0.47777,-1.20034 -0.62135,-7.53534 -0.20873,-9.210005 -0.0332,-67.95384 0.20814,-69.665873 0.24759,-1.75613 0.93018,-3.143297 2.29289,-4.65959 1.1843,-1.31779 2.41188,-2.074635 4.27399,-2.635068 1.09502,-0.329567 2.50861,-0.355655 19.27098,-0.355655 19.68612,0 18.99327,-0.03749 21.21805,1.14804 1.37419,0.73228 2.96757,2.502407 3.60019,3.999581 0.39866,0.943431 0.44883,1.331493 0.4504,3.483403 0.003,2.322732 -0.0219,2.474161 -0.57807,3.705569 -0.77097,1.707026 -2.10749,3.114809 -3.88869,4.096031 l -1.44001,0.793262 -13.04427,0.05395 -13.04426,0.05395 v 9.310121 9.310121 l 1.59075,0.02571 c 0.87493,0.01413 6.45851,0.08175 12.40797,0.150226 l 10.8172,0.124505 1.44433,0.794246 c 1.70439,0.937261 3.28418,2.550993 3.92855,4.012979 0.37764,0.856785 0.45097,1.35695 0.5074,3.461347 0.0637,2.375469 0.0482,2.498964 -0.45283,3.600266 -0.28534,0.627232 -1.02001,1.705612 -1.6326,2.396397 -1.32609,1.495367 -2.84803,2.35443 -4.70386,2.655092 -0.69993,0.113396 -6.36534,0.265693 -12.58976,0.33844 l -11.31715,0.132261 v 9.549015 9.549014 l 13.58967,0.130872 13.58966,0.13087 1.32647,0.718788 c 1.60922,0.872 3.51279,2.772544 4.1873,4.1806 0.4543,0.94837 0.48571,1.18228 0.48571,3.61785 0,2.51374 -0.0189,2.64205 -0.54466,3.70557 -1.27185,2.57251 -3.67286,4.41726 -6.27293,4.81958 -1.62909,0.25208 -29.1114,0.4102 -34.9059,0.20084 z"
       id="path4712"
       inkscape:connector-curvature="0" />
  </g>
  <g
     inkscape:groupmode="layer"
     id="layer2"
     inkscape:label="Layer 2"
     transform="translate(235.51587,6.6839289)" />
</svg>
